<!--?xml version="1.0" standalone="no"?-->              <svg id="sw-js-blob-svg" viewBox="0 0 100 100" xmlns="http://www.w3.org/2000/svg">                    <defs>                         <linearGradient id="sw-gradient" x1="0" x2="1" y1="1" y2="0">                            <stop id="stop1" stop-color="rgba(248, 117, 55, 1)" offset="0%"></stop>                            <stop id="stop2" stop-color="rgba(251, 168, 31, 1)" offset="100%"></stop>                        </linearGradient>                    </defs>                <path fill="url(#sw-gradient)" d="M24.8,-29.7C29.9,-25.3,30.3,-15.3,32.3,-5.5C34.2,4.3,37.7,14.1,35.3,22.4C32.9,30.7,24.5,37.5,15.2,40.3C5.9,43,-4.4,41.7,-13.5,38C-22.7,34.3,-30.7,28.3,-36.4,20.2C-42.1,12,-45.6,1.7,-43.4,-7.1C-41.2,-15.9,-33.4,-23.3,-25.3,-27.1C-17.1,-31,-8.5,-31.5,0.7,-32.3C9.9,-33.1,19.7,-34.1,24.8,-29.7Z" width="100%" height="100%" transform="translate(50 50)" stroke-width="0" style="transition: all 0.3s ease 0s;"></path>              </svg>