<!--?xml version="1.0" standalone="no"?-->              <svg id="sw-js-blob-svg" viewBox="0 0 100 100" xmlns="http://www.w3.org/2000/svg">                    <defs>                         <linearGradient id="sw-gradient" x1="0" x2="1" y1="1" y2="0">                            <stop id="stop1" stop-color="rgba(248, 117, 55, 1)" offset="0%"></stop>                            <stop id="stop2" stop-color="rgba(251, 168, 31, 1)" offset="100%"></stop>                        </linearGradient>                    </defs>                <path fill="url(#sw-gradient)" d="M24.9,-27.9C32.2,-23.6,38,-15.6,38.4,-7.6C38.7,0.4,33.7,8.5,28.2,14.7C22.7,20.9,16.7,25.2,10.1,27.4C3.5,29.7,-3.7,29.8,-12.4,28.9C-21.2,28,-31.5,26.1,-36.7,19.8C-41.9,13.6,-42.1,3.1,-40.3,-7.1C-38.5,-17.3,-34.8,-27.2,-27.8,-31.5C-20.7,-35.9,-10.4,-34.7,-0.8,-33.7C8.8,-32.8,17.6,-32.2,24.9,-27.9Z" width="100%" height="100%" transform="translate(50 50)" stroke-width="0" style="transition: all 0.3s ease 0s;"></path>              </svg>