<svg width="851" height="730" viewBox="0 0 851 730" fill="none" xmlns="http://www.w3.org/2000/svg">
<path d="M352 590V690.5H274.5V724.5H576V690.5H498.5V590H352Z" fill="#004A66" stroke="#004A66" stroke-width="10"/>
<path fill-rule="evenodd" clip-rule="evenodd" d="M1 22.0715V573.071C4.87461 582.776 9.27736 586.736 25 588.571H824C838.173 587.44 845.299 585.846 849.5 573.071V22.0715C849.864 4.68363 843.964 0.367466 824 1.07148H25C7.59555 0.458801 2.97595 5.75413 1 22.0715ZM824 41.5714H25V513.071H824V41.5714Z" fill="#2BBCBC" stroke="#2BBCBC"/>
<path fill-rule="evenodd" clip-rule="evenodd" d="M25.5 513.5H827V41.5H25.5V513.5ZM811 73H44V475H811V73Z" fill="#D9D9D9"/>
<path d="M44 73H811V475H44V73Z" fill="white"/>
<path fill-rule="evenodd" clip-rule="evenodd" d="M25.5 513.5H827V41.5H25.5V513.5ZM811 73H44V475H811V73Z" stroke="#D9D9D9"/>
<path d="M44 73H811V475H44V73Z" stroke="#D9D9D9"/>
<path d="M126.5 427.5L183.5 344.5L255.5 373.5L309.5 334L422 373.5L480 232L559 344.5L584.5 279L626 301L639 158.5L685.5 217L729.5 136.5" stroke="#2FFF8E" stroke-width="10"/>
<circle cx="738" cy="121" r="19" fill="#DD4141"/>
<circle cx="738" cy="121" r="19" fill="#00B3FF"/>
<circle cx="132" cy="418" r="19" fill="#DD4141"/>
<circle cx="132" cy="418" r="19" fill="#DD4141"/>
</svg>

