<svg id="visual" viewBox="0 0 900 600" width="900" height="600" xmlns="http://www.w3.org/2000/svg" xmlns:xlink="http://www.w3.org/1999/xlink" version="1.1"><path d="M0 357L21.5 367.7C43 378.3 86 399.7 128.8 407.8C171.7 416 214.3 411 257.2 409.3C300 407.7 343 409.3 385.8 414.7C428.7 420 471.3 429 514.2 432.7C557 436.3 600 434.7 642.8 421.3C685.7 408 728.3 383 771.2 371.5C814 360 857 362 878.5 363L900 364L900 601L878.5 601C857 601 814 601 771.2 601C728.3 601 685.7 601 642.8 601C600 601 557 601 514.2 601C471.3 601 428.7 601 385.8 601C343 601 300 601 257.2 601C214.3 601 171.7 601 128.8 601C86 601 43 601 21.5 601L0 601Z" fill="#38b2ac"></path><path d="M0 457L21.5 453.3C43 449.7 86 442.3 128.8 439C171.7 435.7 214.3 436.3 257.2 434.3C300 432.3 343 427.7 385.8 425.5C428.7 423.3 471.3 423.7 514.2 431.2C557 438.7 600 453.3 642.8 455.8C685.7 458.3 728.3 448.7 771.2 450C814 451.3 857 463.7 878.5 469.8L900 476L900 601L878.5 601C857 601 814 601 771.2 601C728.3 601 685.7 601 642.8 601C600 601 557 601 514.2 601C471.3 601 428.7 601 385.8 601C343 601 300 601 257.2 601C214.3 601 171.7 601 128.8 601C86 601 43 601 21.5 601L0 601Z" fill="#89dbd2"></path><path d="M0 495L21.5 488.5C43 482 86 469 128.8 460.8C171.7 452.7 214.3 449.3 257.2 454.5C300 459.7 343 473.3 385.8 479.5C428.7 485.7 471.3 484.3 514.2 484.8C557 485.3 600 487.7 642.8 481C685.7 474.3 728.3 458.7 771.2 460C814 461.3 857 479.7 878.5 488.8L900 498L900 601L878.5 601C857 601 814 601 771.2 601C728.3 601 685.7 601 642.8 601C600 601 557 601 514.2 601C471.3 601 428.7 601 385.8 601C343 601 300 601 257.2 601C214.3 601 171.7 601 128.8 601C86 601 43 601 21.5 601L0 601Z" fill="#b2f5ea"></path><path d="M0 526L21.5 525.3C43 524.7 86 523.3 128.8 525.3C171.7 527.3 214.3 532.7 257.2 527.5C300 522.3 343 506.7 385.8 500.8C428.7 495 471.3 499 514.2 500C557 501 600 499 642.8 505.2C685.7 511.3 728.3 525.7 771.2 533.2C814 540.7 857 541.3 878.5 541.7L900 542L900 601L878.5 601C857 601 814 601 771.2 601C728.3 601 685.7 601 642.8 601C600 601 557 601 514.2 601C471.3 601 428.7 601 385.8 601C343 601 300 601 257.2 601C214.3 601 171.7 601 128.8 601C86 601 43 601 21.5 601L0 601Z" fill="#89dbd2"></path><path d="M0 559L21.5 560.3C43 561.7 86 564.3 128.8 559.3C171.7 554.3 214.3 541.7 257.2 534.8C300 528 343 527 385.8 533C428.7 539 471.3 552 514.2 554.8C557 557.7 600 550.3 642.8 544.3C685.7 538.3 728.3 533.7 771.2 534.3C814 535 857 541 878.5 544L900 547L900 601L878.5 601C857 601 814 601 771.2 601C728.3 601 685.7 601 642.8 601C600 601 557 601 514.2 601C471.3 601 428.7 601 385.8 601C343 601 300 601 257.2 601C214.3 601 171.7 601 128.8 601C86 601 43 601 21.5 601L0 601Z" fill="#38b2ac"></path></svg>